<?xml version="1.0" encoding="utf-8"?>
<!-- Generator: Adobe Illustrator 23.0.3, SVG Export Plug-In . SVG Version: 6.00 Build 0)  -->
<svg version="1.1" id="Layer_1" xmlns="http://www.w3.org/2000/svg" xmlns:xlink="http://www.w3.org/1999/xlink" x="0px" y="0px"
	 viewBox="0 0 205.89 39.25" style="enable-background:new 0 0 205.89 39.25;" xml:space="preserve">
<style type="text/css">
	.st0{fill:#0057A8;}
</style>
<g id="est_1_">
	<path class="st0" d="M40.82,14.08c0.22-0.21,0.44-0.34,0.67-0.42c0.24-0.07,0.49-0.11,0.74-0.11h1.07c0.27,0,0.53,0.02,0.76,0.06
		c0.22,0.04,0.3,0.09,0.31,0.13c0.01,0.05,0.02,0.15,0.02,0.3c0.01,0.15,0.01,0.26,0.01,0.32v8.36c0,0.32-0.02,0.59-0.05,0.8
		c-0.03,0.2-0.1,0.37-0.19,0.5s-0.23,0.23-0.41,0.3c-0.19,0.08-0.45,0.13-0.79,0.17c-0.03,0.01-0.08,0.01-0.2,0.01
		c-0.13,0-0.25,0.02-0.37,0.07c-0.1,0.04-0.22,0.14-0.22,0.37c0,0.26,0.17,0.3,0.24,0.31c0.1,0.01,0.2,0.02,0.3,0.02
		c0.42,0,0.84-0.01,1.24-0.04c0.82-0.06,1.77-0.05,2.6,0c0.44,0.03,0.91,0.04,1.38,0.04c0.15,0,0.27-0.01,0.36-0.02
		c0.14-0.02,0.21-0.15,0.21-0.4c0-0.11-0.05-0.31-0.4-0.35c-0.16-0.02-0.34-0.04-0.53-0.06l-0.16-0.02
		c-0.24-0.03-0.47-0.09-0.69-0.2c-0.2-0.09-0.32-0.28-0.37-0.57c-0.03-0.18-0.05-0.36-0.06-0.54c-0.01-0.18-0.01-0.37-0.01-0.55
		c0.02-1.01,0.02-2.03-0.01-3.05c-0.03-0.99-0.03-2.01-0.01-3.04l0.03-2.11c0-0.26,0.01-0.45,0.04-0.57
		c0.03-0.14,0.07-0.2,0.09-0.22c0.03-0.03,0.05-0.04,0.1-0.04l0,0c0.15,0.01,0.32,0.01,0.58,0c0.32-0.01,0.75-0.01,1.19,0.02
		c0.25,0.02,0.5,0.05,0.72,0.09s0.41,0.1,0.57,0.18c0.14,0.07,0.24,0.17,0.29,0.28c0.06,0.16,0.09,0.33,0.08,0.51
		c-0.01,0.19-0.03,0.38-0.04,0.54c-0.02,0.18-0.01,0.33,0.01,0.45c0.02,0.09,0.09,0.25,0.35,0.25c0.15,0,0.36-0.08,0.47-0.46
		c0.08-0.25,0.14-0.56,0.18-0.92c0.04-0.34,0.07-0.7,0.1-1.07c0.03-0.35,0.08-0.64,0.16-0.84c0.06-0.15,0.05-0.31-0.01-0.49
		c-0.05-0.14-0.17-0.3-0.47-0.3c-0.07,0-0.16,0.03-0.24,0.16c-0.05,0.07-0.1,0.15-0.17,0.24c-0.06,0.09-0.14,0.17-0.23,0.24
		c-0.08,0.07-0.18,0.11-0.29,0.13c-0.17,0.02-0.34,0.04-0.52,0.04c-0.75,0.02-1.46,0.01-2.13,0.03c-1.13,0.03-2.42,0.02-3.72-0.01
		c-0.69-0.02-1.41-0.04-2.12-0.08c-0.15-0.01-0.27-0.04-0.35-0.1c-0.09-0.06-0.16-0.13-0.21-0.19c-0.06-0.07-0.1-0.14-0.14-0.2
		c-0.08-0.11-0.17-0.13-0.23-0.13c-0.18,0-0.32,0.05-0.42,0.14c-0.09,0.09-0.16,0.2-0.21,0.33c-0.04,0.12-0.07,0.26-0.08,0.42
		l-0.03,0.4c-0.06,0.59-0.13,1.05-0.22,1.37c-0.1,0.34-0.14,0.61-0.14,0.82c0,0.16,0.04,0.27,0.13,0.34
		c0.08,0.06,0.18,0.09,0.33,0.09c0.09,0,0.18-0.08,0.31-0.29c0.1-0.17,0.2-0.36,0.31-0.55c0.1-0.2,0.2-0.4,0.29-0.58
		C40.73,14.2,40.79,14.12,40.82,14.08"/>
	<path class="st0" d="M54.33,22.37c0.13-0.39,0.28-0.82,0.46-1.3c0.17-0.45,0.35-0.92,0.56-1.39c0.13-0.03,0.3-0.05,0.49-0.06
		c0.44-0.02,0.94-0.02,1.37-0.01c0.23,0.01,0.41,0.01,0.55,0.01h0.33c0.19,0,0.38,0.01,0.56,0.03c0.16,0.01,0.28,0.06,0.35,0.14
		c0,0,0.02,0.03,0.07,0.14c0.04,0.09,0.09,0.2,0.15,0.31c0.17,0.41,0.34,0.82,0.5,1.21s0.31,0.75,0.43,1.07l0.33,0.84
		c0.09,0.24,0.15,0.41,0.19,0.52l0.03,0.11c0.01,0.03,0.01,0.06,0.01,0.08c0,0.19-0.09,0.24-0.17,0.26
		c-0.15,0.04-0.33,0.07-0.52,0.08c-0.2,0.01-0.38,0.03-0.55,0.05c-0.29,0.04-0.33,0.23-0.33,0.33c0,0.14,0.05,0.25,0.16,0.34
		c0.1,0.09,0.22,0.13,0.35,0.13c0.41,0,0.82-0.02,1.21-0.05c0.67-0.06,1.34-0.08,2.01,0c0.27,0.03,0.56,0.05,0.84,0.05h0.19
		c0.12,0,0.25-0.02,0.39-0.07c0.22-0.07,0.25-0.23,0.25-0.32c0-0.2-0.1-0.33-0.28-0.39c-0.14-0.04-0.31-0.08-0.49-0.11
		s-0.36-0.08-0.55-0.15c-0.16-0.06-0.29-0.18-0.38-0.38c-0.58-1.21-1.15-2.45-1.68-3.68c-0.52-1.21-1.03-2.47-1.52-3.73
		c-0.26-0.66-0.54-1.32-0.81-2c-0.28-0.68-0.55-1.35-0.81-2.01c-0.03-0.06-0.07-0.13-0.12-0.2c-0.07-0.09-0.16-0.14-0.28-0.14
		c-0.13,0-0.22,0.03-0.27,0.1c-0.03,0.05-0.06,0.11-0.09,0.19c-0.43,1.05-0.85,2.09-1.28,3.13c-0.43,1.04-0.85,2.08-1.28,3.13
		c-0.25,0.62-0.5,1.23-0.75,1.84c-0.24,0.58-0.48,1.18-0.74,1.84c-0.03,0.08-0.08,0.21-0.15,0.38c-0.06,0.17-0.13,0.34-0.21,0.51
		c-0.06,0.13-0.11,0.26-0.17,0.39l-0.05,0.11c-0.08,0.18-0.12,0.26-0.15,0.29c-0.09,0.14-0.19,0.23-0.32,0.27
		c-0.14,0.04-0.27,0.08-0.4,0.1c-0.15,0.02-0.27,0.06-0.37,0.11c-0.13,0.07-0.2,0.2-0.2,0.39c0,0.09,0.03,0.18,0.08,0.25
		c0.04,0.06,0.12,0.13,0.27,0.13c0.26,0,0.51-0.01,0.73-0.05c0.51-0.07,1.18-0.05,1.82,0.02c0.38,0.04,0.77,0.06,1.14,0.06
		c0.12,0,0.22-0.04,0.31-0.12s0.14-0.19,0.14-0.31c0-0.22-0.13-0.37-0.36-0.42c-0.18-0.04-0.39-0.07-0.63-0.1
		c-0.21-0.02-0.41-0.07-0.59-0.13c-0.09-0.03-0.21-0.11-0.21-0.37c0-0.02,0.01-0.11,0.11-0.45C54.1,23.08,54.2,22.75,54.33,22.37
		 M55.75,18.69c0.2-0.49,0.37-0.89,0.51-1.22c0.15-0.36,0.28-0.68,0.4-0.97c0.11-0.29,0.23-0.57,0.34-0.84
		c0.09-0.22,0.2-0.46,0.32-0.74c0.03,0.06,0.06,0.15,0.1,0.26c0.1,0.28,0.22,0.61,0.35,1.01c0.14,0.4,0.29,0.82,0.45,1.28
		c0.15,0.42,0.29,0.81,0.43,1.18c-0.02,0-0.04,0.01-0.05,0.02c-0.71,0-1.26,0-1.65,0.01c-0.4,0.01-0.69,0.01-0.89,0.01
		C56.06,18.69,55.75,18.69,55.75,18.69z"/>
	<path class="st0" d="M77.06,26c0.08,0.01,0.18,0.02,0.3,0.03s0.24,0.02,0.36,0.02c0.3,0,0.52-0.02,0.66-0.07l0.04-0.03
		c0.13-0.13,0.19-0.23,0.19-0.33c0-0.09-0.04-0.25-0.28-0.3c-0.12-0.03-0.25-0.07-0.39-0.13c-0.46-0.1-0.88-0.31-1.23-0.62
		c-0.36-0.32-0.69-0.7-0.99-1.13c-0.29-0.43-0.57-0.89-0.81-1.38s-0.47-0.95-0.68-1.39c-0.22-0.44-0.43-0.83-0.65-1.15
		c-0.17-0.25-0.34-0.43-0.52-0.55c0.24-0.12,0.49-0.26,0.73-0.42c0.31-0.2,0.6-0.43,0.85-0.69c0.26-0.26,0.47-0.56,0.62-0.88
		c0.16-0.33,0.25-0.69,0.25-1.07c0-0.7-0.13-1.28-0.39-1.73s-0.59-0.82-0.98-1.08c-0.39-0.27-0.82-0.45-1.26-0.55
		s-0.86-0.15-1.25-0.15c-0.44,0-0.89,0.01-1.33,0.03c-0.43,0.02-0.87,0.03-1.32,0.03h-1.5c-0.12,0-0.25,0-0.38-0.02
		c-0.28-0.02-0.54-0.03-0.79,0.03c-0.1,0.02-0.26,0.1-0.26,0.39c0,0.15,0.07,0.26,0.21,0.31c0.1,0.04,0.23,0.06,0.39,0.08l0.46,0.03
		c0.15,0.01,0.3,0.04,0.43,0.09c0.12,0.05,0.22,0.12,0.3,0.23s0.12,0.27,0.12,0.47c0,0.96-0.01,1.94-0.03,2.92s-0.03,1.97-0.03,2.92
		v3.56c0,0.22-0.04,0.39-0.12,0.51s-0.19,0.22-0.32,0.3s-0.28,0.13-0.42,0.15c-0.16,0.03-0.31,0.05-0.46,0.08
		c-0.14,0.02-0.27,0.05-0.37,0.08C66.02,24.65,66,24.78,66,24.85c0,0.21,0.04,0.32,0.12,0.38c0.07,0.04,0.17,0.06,0.35,0.06
		c0.36,0,0.72-0.02,1.07-0.05c0.75-0.07,1.51-0.07,2.27,0.01c0.42,0.04,0.84,0.06,1.26,0.06c0.24,0,0.42-0.02,0.55-0.06
		c0.09-0.03,0.25-0.12,0.25-0.4c0-0.14-0.07-0.24-0.2-0.27c-0.09-0.03-0.19-0.04-0.29-0.04c-0.07,0-0.09-0.01-0.09-0.01l-0.03-0.01
		c-0.23-0.05-0.44-0.08-0.63-0.11c-0.17-0.02-0.32-0.06-0.44-0.13c-0.11-0.06-0.2-0.15-0.26-0.28c-0.07-0.14-0.1-0.35-0.1-0.63
		v-3.56c0-0.34,0.04-0.46,0.06-0.5c0.01-0.02,0.07-0.08,0.33-0.08c0.39,0,0.72,0.1,0.98,0.29c0.27,0.2,0.51,0.46,0.72,0.76
		c0.21,0.31,0.4,0.66,0.56,1.05c0.16,0.39,0.35,0.77,0.54,1.14c0.35,0.91,0.87,1.69,1.54,2.32C75.22,25.42,76.06,25.83,77.06,26
		 M73.29,17.17c-0.16,0.33-0.38,0.6-0.66,0.79c-0.28,0.19-0.62,0.33-1,0.4c-0.4,0.07-0.83,0.11-1.28,0.11
		c-0.2,0-0.34-0.01-0.42-0.04c-0.09-0.03-0.12-0.08-0.13-0.11c-0.02-0.07-0.03-0.15-0.03-0.26c0.01-0.12,0.01-0.27,0.01-0.45
		c0-0.46,0-0.98,0.02-1.55c0.01-0.58,0.02-1.09,0.02-1.56v-0.6c0-0.25,0.06-0.44,0.17-0.56c0.07-0.08,0.25-0.18,0.72-0.18
		c0.41,0,0.8,0.06,1.14,0.17c0.34,0.12,0.64,0.29,0.89,0.51c0.25,0.23,0.44,0.51,0.59,0.84c0.14,0.33,0.22,0.73,0.22,1.17
		C73.53,16.39,73.45,16.83,73.29,17.17"/>
	<path class="st0" d="M81.71,13.56h1.07c0.27,0,0.53,0.02,0.76,0.06c0.22,0.04,0.3,0.09,0.31,0.13c0.01,0.06,0.02,0.2,0.02,0.31
		c0.01,0.15,0.01,0.25,0.01,0.31v8.36c0,0.31-0.02,0.58-0.05,0.8c-0.03,0.2-0.1,0.37-0.19,0.5c-0.09,0.13-0.23,0.23-0.41,0.3
		c-0.19,0.08-0.45,0.13-0.79,0.17c-0.03,0.01-0.08,0.01-0.2,0.01c-0.13,0-0.25,0.02-0.37,0.07c-0.1,0.04-0.22,0.14-0.22,0.37
		c0,0.26,0.17,0.3,0.24,0.31c0.1,0.01,0.2,0.02,0.3,0.02c0.42,0,0.84-0.01,1.24-0.04c0.82-0.06,1.77-0.05,2.6,0
		c0.44,0.03,0.91,0.04,1.38,0.04c0.15,0,0.27-0.01,0.36-0.02c0.14-0.02,0.21-0.15,0.21-0.4c0-0.11-0.05-0.31-0.4-0.35
		c-0.17-0.02-0.35-0.04-0.55-0.06l-0.13-0.02c-0.24-0.03-0.47-0.09-0.69-0.2c-0.2-0.09-0.32-0.28-0.37-0.57
		c-0.03-0.17-0.05-0.35-0.06-0.54c-0.01-0.18-0.01-0.37-0.01-0.55c0.02-1.01,0.02-2.03-0.01-3.05c-0.03-1-0.03-2.03-0.01-3.04
		l0.03-2.11c0-0.26,0.01-0.45,0.04-0.57c0.03-0.15,0.07-0.2,0.09-0.22c0.03-0.03,0.05-0.05,0.1-0.04c0.15,0.01,0.32,0.01,0.58,0
		c0.32-0.01,0.75-0.01,1.19,0.02c0.25,0.02,0.5,0.05,0.72,0.08c0.22,0.04,0.41,0.1,0.57,0.18c0.14,0.07,0.24,0.17,0.29,0.28
		c0.06,0.16,0.09,0.33,0.08,0.51c-0.01,0.19-0.03,0.37-0.04,0.54c-0.02,0.18-0.01,0.33,0.01,0.45c0.02,0.09,0.09,0.25,0.35,0.25
		c0.22,0,0.38-0.15,0.47-0.46c0.08-0.25,0.13-0.56,0.18-0.92c0.04-0.36,0.08-0.72,0.1-1.07c0.03-0.35,0.08-0.64,0.16-0.84
		c0.06-0.15,0.05-0.31-0.01-0.49c-0.05-0.14-0.17-0.3-0.47-0.3c-0.07,0-0.16,0.03-0.25,0.16c-0.04,0.07-0.1,0.15-0.17,0.24
		s-0.14,0.17-0.23,0.24c-0.08,0.07-0.17,0.11-0.29,0.13c-0.17,0.02-0.34,0.04-0.52,0.04c-0.75,0.02-1.46,0.01-2.13,0.03
		c-1.13,0.03-2.42,0.02-3.72-0.01c-0.69-0.02-1.41-0.04-2.12-0.08c-0.15-0.01-0.27-0.05-0.35-0.1c-0.09-0.06-0.16-0.13-0.21-0.19
		c-0.06-0.07-0.1-0.14-0.14-0.19c-0.08-0.11-0.17-0.13-0.23-0.13c-0.18,0-0.32,0.05-0.42,0.14c-0.09,0.09-0.16,0.2-0.21,0.33
		c-0.04,0.12-0.07,0.26-0.08,0.42l-0.04,0.4c-0.06,0.59-0.13,1.06-0.22,1.37c-0.1,0.34-0.14,0.61-0.14,0.82
		c0,0.16,0.04,0.27,0.13,0.34c0.08,0.06,0.19,0.09,0.33,0.09c0.09,0,0.18-0.08,0.31-0.29c0.1-0.17,0.21-0.35,0.31-0.55
		s0.2-0.39,0.3-0.58c0.11-0.22,0.17-0.3,0.2-0.33c0.22-0.21,0.44-0.35,0.67-0.42C81.2,13.6,81.45,13.56,81.71,13.56"/>
	<path class="st0" d="M98.93,25.59c0.5,0,1.01-0.04,1.54-0.11c0.52-0.08,1.04-0.21,1.53-0.4c0.57-0.22,1.01-0.55,1.33-0.97
		c0.3-0.41,0.54-0.88,0.69-1.39s0.24-1.05,0.27-1.61c0.03-0.56,0.04-1.09,0.04-1.6c0-0.31,0-0.62-0.01-0.94
		c0-0.31-0.01-0.62-0.01-0.93c0-0.35,0-0.75-0.01-1.21s-0.01-0.9,0-1.33c0.01-0.42,0.03-0.79,0.06-1.1
		c0.05-0.41,0.12-0.46,0.12-0.47c0.02-0.02,0.09-0.04,0.3-0.07c0.17-0.02,0.36-0.06,0.53-0.1c0.19-0.04,0.36-0.1,0.51-0.17
		c0.22-0.11,0.27-0.27,0.27-0.39c0-0.11-0.05-0.27-0.31-0.36l-0.03-0.01c-0.3,0-0.62,0.01-0.94,0.03c-0.6,0.03-1.23,0.04-1.83-0.01
		c-0.31-0.02-0.62-0.03-0.91-0.03c-0.1,0-0.2,0.01-0.29,0.04c-0.07,0.02-0.2,0.09-0.2,0.31c0,0.25,0.12,0.37,0.22,0.43
		c0.12,0.07,0.27,0.12,0.43,0.15s0.32,0.06,0.48,0.08c0.14,0.02,0.25,0.07,0.34,0.15c0.08,0.07,0.14,0.22,0.17,0.44
		c0.03,0.24,0.05,0.52,0.05,0.82c0,0.31-0.01,0.63-0.02,0.96c-0.01,0.34-0.02,0.64-0.02,0.9v3.7c0,0.33-0.03,0.66-0.1,0.98
		c-0.1,0.57-0.24,1.06-0.42,1.45c-0.18,0.38-0.41,0.7-0.69,0.94s-0.63,0.42-1.03,0.52c-0.41,0.11-0.91,0.16-1.49,0.16
		c-0.48,0-0.93-0.05-1.32-0.15c-0.38-0.1-0.72-0.28-1-0.53s-0.51-0.6-0.68-1.05c-0.17-0.45-0.28-1.03-0.33-1.73
		c-0.02-0.35-0.04-0.71-0.04-1.07c-0.01-0.36-0.01-0.71-0.01-1.07V15.7c0-0.17,0-0.36,0.01-0.55c0.01-0.2,0.02-0.39,0.03-0.56
		c0.02-0.18,0.04-0.35,0.06-0.49c0.02-0.14,0.05-0.25,0.08-0.32c0.07-0.16,0.18-0.26,0.34-0.3c0.19-0.06,0.38-0.1,0.57-0.14
		c0.19-0.03,0.38-0.08,0.54-0.12c0.2-0.06,0.31-0.21,0.31-0.41c0-0.18-0.11-0.3-0.3-0.33c-0.15-0.02-0.27-0.04-0.36-0.04
		c-0.4,0-0.81,0.02-1.19,0.05c-0.73,0.07-1.51,0.07-2.26,0c-0.36-0.03-0.74-0.05-1.11-0.05c-0.29,0-0.45,0.16-0.45,0.43
		c0,0.11,0.05,0.21,0.14,0.27c0.07,0.06,0.16,0.09,0.27,0.11c0.09,0.02,0.18,0.03,0.28,0.04c0.09,0,0.16,0.01,0.22,0.01h0.19
		c0.2,0,0.35,0.05,0.45,0.16c0.11,0.12,0.19,0.25,0.23,0.41c0.05,0.17,0.08,0.35,0.08,0.55c0.01,0.21,0.01,0.39,0.01,0.55
		c0,0.97-0.01,1.95-0.03,2.9c-0.02,0.98-0.04,1.96-0.04,2.91v0.64c0,0.11,0,0.21,0.01,0.32c0.01,0.1,0.01,0.21,0.03,0.32
		c0.07,0.68,0.25,1.25,0.52,1.7s0.63,0.82,1.05,1.09c0.42,0.27,0.91,0.46,1.45,0.58C97.77,25.53,98.34,25.59,98.93,25.59"/>
	<path class="st0" d="M117.45,9.49c-0.22,0.2-0.33,0.45-0.33,0.74s0.1,0.54,0.31,0.73c0.2,0.18,0.45,0.28,0.73,0.28
		c0.28,0,0.52-0.09,0.73-0.27c0.21-0.18,0.32-0.42,0.32-0.72c0-0.26-0.1-0.51-0.29-0.73c-0.19-0.22-0.44-0.33-0.72-0.33
		C117.92,9.2,117.66,9.3,117.45,9.49"/>
	<path class="st0" d="M123.41,24.11c0.3-0.41,0.54-0.88,0.69-1.39s0.24-1.05,0.27-1.61c0.03-0.55,0.04-1.08,0.04-1.6
		c0-0.31,0-0.62-0.01-0.93c0-0.31-0.01-0.62-0.01-0.93c0-0.35,0-0.75-0.01-1.21c-0.01-0.46-0.01-0.9,0-1.33
		c0.01-0.42,0.03-0.79,0.06-1.1c0.05-0.41,0.12-0.46,0.12-0.47c0.03-0.01,0.1-0.04,0.3-0.07c0.17-0.02,0.35-0.06,0.53-0.1
		c0.19-0.04,0.36-0.1,0.51-0.17c0.22-0.11,0.27-0.27,0.27-0.39c0-0.11-0.06-0.27-0.31-0.36l-0.04-0.01c-0.31,0-0.62,0.01-0.94,0.03
		c-0.61,0.03-1.24,0.04-1.83-0.01c-0.32-0.02-0.63-0.03-0.92-0.03c-0.1,0-0.2,0.01-0.29,0.04c-0.07,0.02-0.2,0.09-0.2,0.31
		c0,0.25,0.12,0.37,0.22,0.43c0.12,0.07,0.26,0.12,0.43,0.15c0.16,0.03,0.32,0.06,0.48,0.08c0.14,0.02,0.25,0.07,0.34,0.15
		c0.08,0.07,0.14,0.23,0.17,0.44c0.03,0.24,0.05,0.52,0.05,0.82c0,0.31-0.01,0.63-0.02,0.96c-0.01,0.34-0.02,0.64-0.02,0.9v3.7
		c0,0.34-0.03,0.67-0.1,0.98c-0.1,0.57-0.24,1.06-0.42,1.45c-0.18,0.38-0.41,0.7-0.69,0.94s-0.63,0.42-1.03,0.52
		c-0.41,0.11-0.91,0.16-1.49,0.16c-0.48,0-0.93-0.05-1.32-0.15c-0.38-0.1-0.72-0.28-1-0.53s-0.51-0.61-0.68-1.05
		c-0.17-0.45-0.28-1.03-0.33-1.73c-0.02-0.34-0.04-0.69-0.04-1.07c0-0.36-0.01-0.71-0.01-1.07V15.7c0-0.17,0-0.35,0.01-0.55
		c0.01-0.19,0.02-0.38,0.04-0.56c0.02-0.18,0.04-0.35,0.06-0.49c0.02-0.14,0.05-0.25,0.08-0.32c0.07-0.16,0.18-0.26,0.34-0.3
		c0.19-0.06,0.38-0.1,0.57-0.14c0.21-0.04,0.38-0.08,0.54-0.12c0.2-0.06,0.31-0.2,0.31-0.41c0-0.18-0.1-0.3-0.3-0.33
		c-0.15-0.02-0.27-0.04-0.36-0.04c-0.41,0-0.81,0.02-1.19,0.05c-0.73,0.07-1.51,0.07-2.26,0c-0.36-0.03-0.74-0.05-1.11-0.05
		c-0.29,0-0.45,0.16-0.45,0.43c0,0.12,0.05,0.21,0.14,0.28c0.07,0.06,0.16,0.09,0.27,0.11c0.09,0.02,0.18,0.03,0.27,0.04
		s0.16,0.01,0.22,0.01h0.19c0.2,0,0.35,0.05,0.45,0.16c0.11,0.11,0.19,0.25,0.23,0.42c0.05,0.17,0.08,0.35,0.08,0.55
		c0,0.21,0.01,0.39,0.01,0.55c0,0.97-0.01,1.95-0.03,2.9c-0.02,0.97-0.03,1.94-0.03,2.91v0.64c0,0.11,0,0.21,0.01,0.32
		c0.01,0.1,0.01,0.21,0.03,0.32c0.07,0.68,0.24,1.25,0.52,1.7c0.27,0.45,0.63,0.82,1.05,1.09c0.42,0.27,0.91,0.47,1.45,0.58
		c0.54,0.11,1.11,0.17,1.7,0.17c0.49,0,1.01-0.04,1.54-0.11c0.52-0.08,1.03-0.21,1.53-0.4C122.66,24.86,123.1,24.53,123.41,24.11"/>
	<path class="st0" d="M121.56,11.24c0.03,0.01,0.06,0.02,0.1,0.02c0.3,0,0.56-0.1,0.77-0.29s0.32-0.45,0.32-0.77
		c0-0.29-0.1-0.54-0.29-0.72c-0.19-0.19-0.44-0.28-0.73-0.28c-0.3,0-0.56,0.1-0.75,0.29s-0.29,0.44-0.29,0.73
		c0,0.25,0.08,0.48,0.24,0.68C121.09,11.1,121.3,11.21,121.56,11.24"/>
	<path class="st0" d="M136.87,25.4c0.18,0,0.26-0.22,0.32-0.41c0.06-0.23,0.14-0.52,0.23-0.88c0.09-0.36,0.22-0.77,0.38-1.22
		c0.16-0.45,0.38-0.9,0.66-1.35l0.03-0.05l-0.02-0.05c-0.06-0.14-0.17-0.22-0.33-0.26c-0.16-0.03-0.3,0-0.44,0.11
		c-0.03,0.03-0.08,0.1-0.26,0.41c-0.13,0.22-0.28,0.48-0.45,0.76s-0.36,0.55-0.55,0.8s-0.38,0.42-0.55,0.52
		c-0.1,0.06-0.29,0.15-0.57,0.25c-0.28,0.1-0.6,0.18-0.95,0.23c-0.35,0.05-0.71,0.05-1.07,0.01c-0.35-0.04-0.67-0.17-0.94-0.37
		c-0.06-0.05-0.12-0.16-0.16-0.32c-0.04-0.17-0.08-0.36-0.1-0.59c-0.02-0.22-0.04-0.45-0.04-0.7c-0.01-0.25-0.01-0.47-0.01-0.68
		v-0.66c0-1.05,0.01-2.08,0.02-3.08c0.01-1.01,0.02-2.04,0.02-3.09c0-0.09,0-0.2,0.01-0.32s0.02-0.25,0.03-0.37
		c0.02-0.12,0.04-0.24,0.08-0.34c0.03-0.1,0.08-0.18,0.15-0.23c0.1-0.08,0.23-0.13,0.39-0.14l0.55-0.05
		c0.19-0.02,0.36-0.05,0.49-0.09c0.18-0.05,0.28-0.19,0.28-0.37c0-0.13-0.07-0.24-0.19-0.36l-0.03-0.03h-0.04
		c-0.5,0-0.93,0.01-1.31,0.03c-0.76,0.04-1.61,0.05-2.38-0.03c-0.39-0.04-0.79-0.06-1.2-0.06c-0.13,0-0.27,0.01-0.41,0.04
		c-0.11,0.02-0.29,0.09-0.29,0.38c0,0.22,0.13,0.35,0.36,0.39c0.18,0.03,0.38,0.06,0.61,0.09c0.21,0.03,0.42,0.08,0.61,0.16
		c0.17,0.07,0.27,0.21,0.31,0.43s0.07,0.48,0.07,0.76v5.05c0,0.32,0.01,0.7,0.04,1.17c0.02,0.46,0.03,0.91,0.03,1.35
		c0,0.43-0.02,0.83-0.07,1.2c-0.04,0.34-0.13,0.58-0.24,0.7c-0.15,0.14-0.31,0.22-0.48,0.24c-0.2,0.03-0.38,0.05-0.54,0.06
		c-0.18,0.01-0.33,0.04-0.46,0.08c-0.11,0.04-0.24,0.14-0.24,0.4c0,0.09,0.03,0.18,0.09,0.26c0.07,0.08,0.15,0.13,0.26,0.13
		c0.37,0,0.71-0.01,1-0.04c0.28-0.02,0.55-0.05,0.81-0.07s0.53-0.05,0.81-0.07s0.61-0.03,0.98-0.03c0.76,0,1.54,0.05,2.34,0.15
		C135.31,25.35,136.1,25.4,136.87,25.4"/>
	<path class="st0" d="M143.63,25.23c0.52,0.05,1.02,0.08,1.5,0.03c0.22-0.02,0.34-0.17,0.34-0.39c0-0.09-0.03-0.25-0.27-0.31
		c-0.12-0.03-0.27-0.07-0.45-0.1c-0.17-0.03-0.34-0.06-0.52-0.1c-0.16-0.03-0.28-0.09-0.37-0.16c-0.12-0.11-0.19-0.27-0.22-0.47
		c-0.03-0.23-0.04-0.43-0.04-0.61v-4.41c0-0.73,0.01-1.46,0.03-2.16c0.02-0.72,0.03-1.45,0.03-2.16c0-0.2,0.01-0.38,0.02-0.53
		c0.01-0.13,0.05-0.24,0.12-0.32c0.07-0.09,0.18-0.15,0.32-0.19c0.16-0.04,0.4-0.07,0.7-0.07c0.17,0,0.33-0.02,0.45-0.06
		c0.1-0.03,0.26-0.11,0.26-0.4c0-0.05-0.01-0.1-0.04-0.18c-0.03-0.07-0.06-0.12-0.09-0.15l-0.03-0.03h-1.55
		c-0.16,0-0.33,0.01-0.51,0.03c-0.17,0.02-0.34,0.03-0.49,0.03c-0.33,0-0.66-0.02-1-0.05s-0.69-0.05-1.02-0.05h-0.19
		c-0.1,0-0.21,0.01-0.32,0.03c-0.16,0.02-0.25,0.14-0.25,0.3c0,0.26,0.13,0.36,0.23,0.41c0.12,0.05,0.27,0.08,0.44,0.09
		c0.15,0.01,0.32,0.03,0.49,0.06c0.15,0.02,0.28,0.09,0.38,0.19c0.04,0.05,0.1,0.17,0.14,0.44c0.03,0.22,0.05,0.43,0.05,0.62v0.33
		c0,0.29,0,0.58-0.01,0.86c-0.01,0.29-0.01,0.58-0.01,0.88l-0.02,6.05v0.36c0,0.21-0.01,0.44-0.04,0.67
		c-0.02,0.21-0.08,0.35-0.18,0.43c-0.1,0.09-0.23,0.16-0.38,0.19c-0.17,0.04-0.33,0.07-0.49,0.1c-0.15,0.03-0.29,0.06-0.42,0.11
		c-0.21,0.08-0.24,0.23-0.24,0.32c0,0.18,0.08,0.31,0.23,0.37c0.12,0.05,0.25,0.07,0.37,0.07h0.24c0.35,0,0.67-0.02,0.95-0.06
		C142.28,25.16,142.96,25.16,143.63,25.23"/>
	<path class="st0" d="M151.67,20.3v-0.78c0-0.16,0-0.31,0.01-0.45c0.01-0.18,0.02-0.26,0.02-0.28c0-0.01,0.01-0.02,0.01-0.03
		c0.07,0.02,0.15,0.04,0.27,0.05c0.13,0.07,0.3,0.2,0.51,0.4c0.23,0.21,0.48,0.46,0.76,0.76c0.29,0.3,0.58,0.62,0.87,0.94
		c0.3,0.33,0.59,0.66,0.86,0.98c0.28,0.32,0.53,0.62,0.75,0.88l0.16,0.18c0.15,0.18,0.28,0.33,0.36,0.43
		c0.02,0.04,0.07,0.1,0.13,0.18s0.13,0.17,0.2,0.26c0.07,0.09,0.13,0.18,0.19,0.25c0.05,0.07,0.08,0.11,0.1,0.14
		c0.04,0.06,0.05,0.1,0.06,0.1c-0.07,0.03-0.15,0.05-0.23,0.05c-0.06,0-0.16,0-0.31-0.01s-0.32,0-0.49,0.03
		c-0.17,0.02-0.32,0.07-0.46,0.13c-0.2,0.1-0.24,0.25-0.24,0.35c0,0.18,0.06,0.3,0.17,0.35c0.08,0.03,0.19,0.05,0.32,0.05
		c0.43,0,0.88-0.01,1.34-0.04c0.83-0.06,1.62-0.06,2.4,0c0.37,0.03,0.74,0.04,1.1,0.04c0.07,0,0.16-0.01,0.29-0.03
		c0.21-0.03,0.26-0.17,0.27-0.26c0.02-0.31-0.16-0.41-0.27-0.44c-0.15-0.04-0.29-0.07-0.44-0.1c-0.27-0.07-0.53-0.18-0.77-0.34
		s-0.47-0.35-0.69-0.57c-0.22-0.21-0.43-0.44-0.64-0.69s-0.41-0.48-0.61-0.71c-0.08-0.08-0.24-0.24-0.46-0.49l-0.79-0.86
		c-0.3-0.32-0.62-0.66-0.95-1.03c-0.34-0.36-0.64-0.7-0.93-1.02c-0.28-0.32-0.52-0.59-0.72-0.82c-0.18-0.21-0.26-0.31-0.29-0.36
		c0.03-0.05,0.11-0.14,0.31-0.32c0.21-0.21,0.47-0.45,0.78-0.74c0.31-0.29,0.65-0.6,1.02-0.92c0.36-0.33,0.72-0.63,1.05-0.91
		s0.63-0.53,0.89-0.73c0.31-0.25,0.45-0.34,0.51-0.37c0.14-0.07,0.3-0.13,0.49-0.15c0.2-0.03,0.39-0.06,0.58-0.08
		c0.19-0.02,0.35-0.06,0.49-0.11c0.17-0.06,0.26-0.19,0.26-0.36c0-0.14-0.06-0.25-0.17-0.32c-0.1-0.06-0.2-0.08-0.31-0.08
		c-0.29,0-0.58,0.01-0.86,0.03c-0.58,0.04-1.22,0.03-1.8,0c-0.48-0.03-0.94-0.03-1.45-0.02c-0.21,0.01-0.37,0.11-0.44,0.3
		l-0.01,0.18c0,0.1,0.04,0.27,0.33,0.31c0.16,0.02,0.34,0.04,0.54,0.04c0.18,0.01,0.36,0.02,0.52,0.04c0.15,0.02,0.15,0.08,0.15,0.1
		c0,0.01-0.01,0.08-0.21,0.31c-0.15,0.18-0.35,0.4-0.59,0.64c-0.24,0.24-0.51,0.51-0.8,0.78c-0.23,0.22-0.46,0.43-0.67,0.63
		l-0.17,0.16c-0.26,0.25-0.5,0.47-0.72,0.66c-0.22,0.2-0.36,0.34-0.44,0.42l-0.23,0.23c-0.09,0.09-0.19,0.18-0.3,0.27
		s-0.22,0.17-0.35,0.23c-0.08,0.04-0.16,0.07-0.23,0.08c0.02-0.1,0.03-0.14,0.03-0.16v-0.92c0-0.28,0-0.55-0.01-0.81
		s-0.01-0.53-0.01-0.8v-0.92c0-0.48,0.1-0.67,0.18-0.75c0.13-0.12,0.27-0.19,0.44-0.21c0.18-0.02,0.36-0.02,0.53-0.01
		c0.23,0.02,0.37-0.03,0.45-0.16c0.03-0.05,0.05-0.11,0.07-0.19c0.01-0.05,0.02-0.1,0.04-0.14l0.01-0.05c0-0.08-0.04-0.19-0.23-0.25
		c-0.11-0.04-0.23-0.06-0.33-0.06h-0.16c-0.27,0-0.53,0.01-0.79,0.04c-0.25,0.03-0.5,0.04-0.77,0.04h-0.54
		c-0.29,0-0.59-0.02-0.87-0.05c-0.29-0.03-0.59-0.05-0.89-0.05h-0.19c-0.11,0-0.23,0.02-0.35,0.05c-0.21,0.06-0.24,0.2-0.24,0.28
		c0,0.18,0.06,0.3,0.18,0.38c0.1,0.07,0.22,0.11,0.37,0.13c0.13,0.02,0.28,0.02,0.43,0.02c0.14,0,0.26,0,0.37,0.02
		c0.18,0.03,0.28,0.11,0.32,0.26c0.05,0.18,0.07,0.36,0.07,0.53v2.11c0,1.23-0.01,2.35-0.03,3.43c-0.02,1.14-0.03,2.29-0.03,3.43
		c0,0.1-0.01,0.22-0.02,0.34c-0.01,0.13-0.04,0.25-0.07,0.37c-0.03,0.12-0.08,0.23-0.13,0.33c-0.05,0.09-0.12,0.15-0.21,0.19
		c-0.08,0.04-0.19,0.06-0.34,0.07c-0.16,0.01-0.32,0.02-0.48,0.03c-0.16,0.02-0.31,0.06-0.44,0.11c-0.15,0.07-0.24,0.2-0.24,0.38
		c0,0.18,0.1,0.3,0.29,0.33c0.14,0.03,0.27,0.04,0.37,0.04c0.49,0,0.96-0.02,1.41-0.05c0.43-0.03,0.9-0.05,1.39-0.05
		c0.24,0,0.48,0.01,0.71,0.04c0.25,0.03,0.49,0.05,0.73,0.05h0.23c0.13,0,0.26-0.03,0.38-0.09c0.1-0.05,0.21-0.15,0.21-0.36
		c0-0.2-0.11-0.27-0.18-0.3c-0.09-0.03-0.19-0.05-0.3-0.06c-0.11,0-0.21,0-0.31,0h-0.03c-0.07,0-0.1-0.01-0.11-0.02l-0.03-0.02
		h-0.04c-0.21,0.02-0.38-0.01-0.5-0.1s-0.21-0.21-0.26-0.37c-0.06-0.16-0.1-0.34-0.12-0.54c-0.02-0.2-0.03-0.39-0.03-0.56
		c0-0.43,0-0.85,0.01-1.26C151.67,21.15,151.67,20.73,151.67,20.3"/>
	<path class="st0" d="M174.74,21.39c0.35-0.83,0.54-1.73,0.54-2.66c0-0.98-0.18-1.88-0.54-2.69c-0.36-0.8-0.86-1.51-1.48-2.08
		c-0.62-0.58-1.35-1.03-2.17-1.35c-0.82-0.32-1.71-0.48-2.62-0.48c-0.95,0-1.85,0.18-2.65,0.52c-0.8,0.34-1.51,0.83-2.1,1.43
		c-0.59,0.61-1.05,1.33-1.38,2.16c-0.33,0.83-0.49,1.74-0.49,2.7s0.16,1.86,0.48,2.68c0.32,0.81,0.77,1.52,1.34,2.12
		c0.57,0.6,1.27,1.07,2.07,1.4s1.68,0.5,2.63,0.5c0.95,0,1.86-0.19,2.71-0.55c0.84-0.37,1.58-0.87,2.2-1.49
		C173.89,22.96,174.38,22.22,174.74,21.39 M173.07,20.02c-0.01,0.72-0.13,1.4-0.36,2.03c-0.22,0.63-0.58,1.19-1.06,1.65
		s-1.14,0.77-1.97,0.91c-0.32,0.06-0.64,0.09-0.93,0.09c-0.48,0-0.92-0.08-1.31-0.24c-0.64-0.26-1.19-0.64-1.64-1.15
		s-0.82-1.1-1.1-1.77s-0.48-1.35-0.59-2.02c-0.13-0.65-0.19-1.33-0.18-2.03c0.01-0.7,0.12-1.35,0.34-1.96
		c0.22-0.6,0.57-1.14,1.05-1.58s1.15-0.75,1.99-0.91c0.32-0.06,0.62-0.09,0.91-0.09c0.43,0,0.84,0.07,1.21,0.2
		c0.63,0.22,1.18,0.57,1.65,1.03c0.47,0.47,0.86,1.04,1.16,1.69c0.3,0.66,0.53,1.36,0.67,2.08
		C173.03,18.61,173.09,19.31,173.07,20.02"/>
	<path class="st0" d="M188.87,13.96c-0.62-0.58-1.35-1.03-2.17-1.35c-0.82-0.32-1.7-0.48-2.62-0.48c-0.96,0-1.85,0.17-2.65,0.52
		c-0.8,0.34-1.51,0.83-2.1,1.43c-0.59,0.61-1.05,1.33-1.38,2.16c-0.33,0.83-0.49,1.74-0.49,2.7c0,0.96,0.16,1.86,0.48,2.67
		c0.32,0.81,0.77,1.52,1.35,2.12c0.57,0.59,1.27,1.06,2.07,1.4s1.68,0.5,2.62,0.5c0.95,0,1.86-0.19,2.71-0.55
		c0.84-0.37,1.58-0.87,2.2-1.49c0.62-0.62,1.12-1.36,1.47-2.19s0.54-1.73,0.54-2.66c0-0.98-0.18-1.89-0.54-2.69
		C189.98,15.23,189.48,14.53,188.87,13.96 M188.69,20.02c-0.01,0.71-0.13,1.4-0.36,2.03c-0.22,0.63-0.58,1.19-1.06,1.65
		s-1.14,0.77-1.97,0.91c-0.32,0.06-0.64,0.09-0.93,0.09l0,0c-0.48,0-0.92-0.08-1.31-0.24c-0.64-0.26-1.19-0.64-1.64-1.15
		s-0.82-1.1-1.1-1.77s-0.48-1.35-0.59-2.02c-0.13-0.65-0.18-1.33-0.18-2.03c0.01-0.69,0.12-1.35,0.34-1.96
		c0.22-0.6,0.57-1.14,1.05-1.58s1.15-0.75,1.99-0.91c0.32-0.06,0.62-0.09,0.91-0.09c0.43,0,0.84,0.07,1.21,0.2
		c0.63,0.22,1.18,0.57,1.65,1.03c0.47,0.47,0.86,1.04,1.16,1.69c0.3,0.66,0.53,1.36,0.66,2.08
		C188.65,18.62,188.7,19.31,188.69,20.02"/>
	<path class="st0" d="M200.87,25.4c0.18,0,0.26-0.22,0.32-0.41c0.06-0.23,0.14-0.52,0.23-0.88c0.09-0.36,0.22-0.77,0.38-1.22
		c0.16-0.45,0.38-0.9,0.66-1.35l0.03-0.05l-0.02-0.05c-0.06-0.13-0.17-0.22-0.33-0.26c-0.16-0.03-0.3,0-0.44,0.11
		c-0.03,0.03-0.09,0.1-0.26,0.41c-0.13,0.22-0.28,0.48-0.45,0.76s-0.36,0.55-0.56,0.8c-0.19,0.25-0.38,0.42-0.56,0.52
		c-0.09,0.06-0.28,0.15-0.56,0.25s-0.6,0.18-0.95,0.23c-0.35,0.05-0.71,0.05-1.07,0.01c-0.35-0.04-0.67-0.17-0.94-0.37
		c-0.06-0.05-0.12-0.16-0.15-0.32c-0.05-0.17-0.08-0.36-0.1-0.59c-0.02-0.21-0.04-0.45-0.04-0.7c-0.01-0.25-0.01-0.47-0.01-0.68
		v-0.66c0-1.05,0.01-2.08,0.02-3.08c0.01-1.02,0.02-2.06,0.02-3.09c0-0.09,0-0.2,0.01-0.32s0.02-0.25,0.03-0.37
		c0.02-0.12,0.04-0.24,0.08-0.34c0.04-0.1,0.09-0.17,0.15-0.23c0.1-0.08,0.23-0.13,0.39-0.14l0.55-0.05
		c0.19-0.02,0.36-0.05,0.49-0.09c0.18-0.05,0.28-0.19,0.28-0.37c0-0.13-0.07-0.24-0.19-0.36l-0.03-0.03h-0.04
		c-0.5,0-0.93,0.01-1.31,0.03c-0.76,0.04-1.61,0.06-2.39-0.03c-0.39-0.04-0.79-0.06-1.2-0.06c-0.13,0-0.27,0.01-0.41,0.04
		c-0.11,0.02-0.29,0.09-0.29,0.38c0,0.22,0.13,0.35,0.36,0.39c0.18,0.03,0.38,0.06,0.61,0.09c0.21,0.03,0.42,0.08,0.61,0.16
		c0.17,0.07,0.27,0.21,0.31,0.43s0.07,0.48,0.07,0.76v5.05c0,0.31,0.01,0.69,0.03,1.17c0.02,0.45,0.04,0.9,0.04,1.35
		c0,0.43-0.02,0.83-0.07,1.2c-0.04,0.34-0.13,0.58-0.24,0.7c-0.15,0.14-0.3,0.22-0.48,0.24c-0.2,0.03-0.38,0.05-0.55,0.06
		c-0.18,0.01-0.33,0.04-0.46,0.08c-0.11,0.04-0.24,0.14-0.24,0.4c0,0.09,0.03,0.18,0.09,0.26c0.07,0.08,0.15,0.13,0.26,0.13
		c0.37,0,0.71-0.01,1-0.04c0.28-0.02,0.55-0.05,0.81-0.07s0.53-0.05,0.81-0.07s0.61-0.03,0.99-0.03c0.76,0,1.54,0.05,2.34,0.15
		C199.31,25.35,200.1,25.4,200.87,25.4"/>
	<path class="st0" d="M10.35,34.39c0-0.2,0.01-0.4,0.01-0.61c0-0.06,0-0.11,0.01-0.16c0-0.02,0.01-0.04,0.02-0.05
		c0,0,0.02-0.02,0.05-0.03s0.08-0.02,0.18-0.02c0.06,0,0.12-0.01,0.17-0.02c0.1-0.03,0.15-0.11,0.15-0.22c0-0.05-0.02-0.1-0.07-0.15
		l-0.04-0.04h-0.52c-0.06,0-0.11,0-0.17,0.01c-0.15,0.01-0.29,0.01-0.4-0.01c-0.08-0.01-0.18-0.02-0.29-0.02H9.39
		c-0.03,0-0.07,0-0.11,0.01c-0.1,0.02-0.16,0.09-0.16,0.19c0,0.15,0.09,0.2,0.13,0.22c0.05,0.02,0.1,0.03,0.17,0.04
		c0.05,0,0.09,0.01,0.14,0.02c0.03,0,0.05,0.01,0.06,0.02c0,0,0.01,0.02,0.02,0.09c0.01,0.06,0.01,0.12,0.01,0.18v0.1
		c0,0.09,0,0.18,0,0.26c0,0.09,0,0.18,0,0.27l-0.01,0.49c0,0.06,0,0.13-0.01,0.19c-0.01,0.05-0.02,0.07-0.02,0.07
		c-0.02,0.02-0.04,0.03-0.07,0.04c-0.05,0.01-0.1,0.02-0.15,0.03c-0.06,0.01-0.1,0.02-0.14,0.04c-0.09,0.03-0.14,0.1-0.14,0.19
		c0,0.1,0.05,0.17,0.14,0.21c0.05,0.02,0.1,0.03,0.15,0.03h0.07c0.06,0,0.11,0,0.15-0.01c0.04,0,0.08-0.01,0.12-0.01
		c0.03-0.01,0.06-0.01,0.1-0.01c0.1-0.01,0.27-0.01,0.41,0.01c0.16,0.02,0.33,0.02,0.48,0.01c0.12-0.01,0.2-0.1,0.2-0.22
		c0-0.09-0.06-0.17-0.16-0.19c-0.04-0.01-0.09-0.02-0.15-0.03c-0.05-0.01-0.1-0.02-0.16-0.03c-0.03-0.01-0.06-0.01-0.07-0.03
		c-0.01-0.01-0.02-0.02-0.03-0.06c-0.01-0.05-0.02-0.09-0.02-0.13v-0.07C10.34,34.78,10.34,34.58,10.35,34.39"/>
	<path class="st0" d="M13.04,35.28c-0.07,0.05-0.15,0.07-0.26,0.07c-0.12,0-0.22-0.03-0.3-0.09s-0.15-0.15-0.2-0.24
		c-0.05-0.11-0.09-0.22-0.11-0.35c-0.02-0.13-0.03-0.25-0.03-0.37c0-0.06,0-0.12,0.01-0.17L12.17,34c0.02-0.03,0.05-0.06,0.09-0.09
		c0.05-0.04,0.1-0.09,0.15-0.12c0.06-0.04,0.11-0.07,0.18-0.1c0.16-0.07,0.33-0.03,0.44,0.03c0.08,0.04,0.14,0.1,0.19,0.17
		c0.05,0.08,0.09,0.16,0.11,0.26c0.03,0.1,0.04,0.21,0.04,0.31c0,0.1-0.01,0.21-0.03,0.32c-0.02,0.1-0.06,0.2-0.11,0.29
		C13.17,35.16,13.11,35.22,13.04,35.28 M13.79,33.5c-0.1-0.11-0.22-0.2-0.36-0.26c-0.23-0.1-0.52-0.12-0.78-0.05
		c-0.1,0.03-0.19,0.06-0.27,0.11c-0.02,0.01-0.05,0.03-0.07,0.04c0.06-0.15,0.12-0.3,0.2-0.45c0.14-0.25,0.33-0.47,0.55-0.67
		c0.05-0.04,0.1-0.09,0.15-0.12c0.05-0.04,0.11-0.07,0.15-0.1c0.01-0.01,0.04-0.02,0.07-0.03c0.04-0.02,0.07-0.04,0.11-0.06
		c0.04-0.02,0.08-0.05,0.11-0.07c0.06-0.05,0.09-0.1,0.09-0.16s-0.02-0.12-0.07-0.16c-0.03-0.02-0.05-0.04-0.08-0.06l-0.04-0.02
		h-0.04c-0.05,0.01-0.11,0.02-0.17,0.05c-0.05,0.02-0.1,0.04-0.14,0.06c-0.25,0.12-0.49,0.27-0.72,0.45
		c-0.22,0.18-0.42,0.38-0.58,0.61c-0.17,0.23-0.3,0.47-0.39,0.74c-0.1,0.27-0.14,0.55-0.14,0.85c0,0.15,0.02,0.3,0.05,0.45
		s0.08,0.29,0.15,0.42s0.16,0.25,0.27,0.35c0.11,0.1,0.24,0.19,0.4,0.26c0.19,0.08,0.38,0.12,0.56,0.12c0.19,0,0.37-0.04,0.53-0.12
		c0.16-0.08,0.3-0.19,0.41-0.32s0.2-0.28,0.26-0.45c0.06-0.17,0.09-0.35,0.09-0.53c0-0.17-0.03-0.33-0.08-0.47
		C13.97,33.74,13.89,33.61,13.79,33.5"/>
	<path class="st0" d="M16.3,34.77c-0.1-0.1-0.23-0.17-0.37-0.22c-0.04-0.01-0.09-0.03-0.14-0.03c0.06-0.06,0.12-0.13,0.18-0.2
		c0.07-0.09,0.14-0.19,0.19-0.29c0.06-0.11,0.09-0.22,0.09-0.31c0-0.13-0.02-0.24-0.07-0.34c-0.05-0.09-0.11-0.17-0.19-0.23
		c-0.08-0.06-0.17-0.1-0.26-0.13c-0.18-0.05-0.38-0.06-0.59,0.03c-0.1,0.04-0.18,0.09-0.26,0.14c-0.08,0.06-0.15,0.12-0.2,0.19
		c-0.07,0.08-0.1,0.17-0.09,0.26c0.01,0.05,0.03,0.1,0.07,0.13c0.04,0.04,0.09,0.05,0.11,0.05c0.04,0,0.08-0.02,0.12-0.06
		c0.08-0.09,0.15-0.16,0.21-0.21c0.09-0.07,0.27-0.09,0.4,0.03c0.06,0.06,0.09,0.15,0.09,0.28c0,0.07-0.02,0.15-0.06,0.23
		c-0.05,0.09-0.11,0.17-0.19,0.25s-0.16,0.15-0.25,0.22s-0.17,0.12-0.24,0.16l-0.1,0.05c-0.13,0.06-0.15,0.15-0.15,0.2
		c0,0.13,0.09,0.22,0.21,0.22c0.05,0,0.1-0.02,0.17-0.07c0.04-0.02,0.06-0.04,0.09-0.05c0.05-0.02,0.09-0.03,0.13-0.03h0.02
		c0.07,0.01,0.14,0.02,0.21,0.03s0.13,0.04,0.19,0.08c0.06,0.04,0.1,0.09,0.14,0.15s0.07,0.13,0.09,0.2s0.03,0.15,0.03,0.22
		c0,0.14-0.03,0.27-0.08,0.38c-0.06,0.12-0.14,0.22-0.24,0.31c-0.1,0.09-0.22,0.17-0.36,0.24c-0.14,0.07-0.28,0.12-0.44,0.17
		c-0.05,0.01-0.09,0.03-0.12,0.07c-0.02,0.03-0.04,0.07-0.04,0.11c-0.01,0.05,0.01,0.09,0.03,0.13c0.02,0.03,0.07,0.08,0.15,0.08
		l0,0l0,0c0.2,0,0.41-0.05,0.62-0.14s0.4-0.2,0.58-0.35c0.17-0.15,0.32-0.32,0.43-0.52c0.12-0.2,0.18-0.42,0.18-0.64
		c0-0.15-0.03-0.29-0.08-0.43C16.48,34.98,16.4,34.86,16.3,34.77"/>
	<path class="st0" d="M19.4,34.72c-0.02-0.04-0.06-0.1-0.16-0.14c-0.09-0.04-0.19-0.01-0.26,0.08l-0.15,0.22
		c-0.04,0.05-0.07,0.11-0.11,0.16c-0.04,0.06-0.08,0.11-0.11,0.15c0,0-0.02,0.02-0.12,0.04c-0.09,0.02-0.2,0.03-0.31,0.04
		c-0.1,0-0.19,0-0.28,0c0.03-0.03,0.07-0.07,0.11-0.11c0.07-0.08,0.15-0.17,0.23-0.26c0.08-0.1,0.16-0.19,0.23-0.3
		c0.07-0.1,0.14-0.2,0.19-0.29c0.06-0.1,0.1-0.19,0.12-0.27c0.09-0.31,0.06-0.56-0.08-0.76c-0.14-0.2-0.37-0.3-0.67-0.3
		c-0.06,0-0.11,0-0.17,0.01c-0.06,0-0.13,0.02-0.19,0.04c-0.07,0.02-0.13,0.06-0.21,0.1c-0.07,0.05-0.14,0.11-0.22,0.19
		c-0.01,0.01-0.03,0.04-0.06,0.07l-0.05,0.08c-0.03,0.03-0.05,0.07-0.06,0.1c-0.02,0.05-0.03,0.08-0.03,0.12
		c0,0.07,0.03,0.13,0.08,0.17c0.06,0.04,0.13,0.05,0.2,0.02c0.05-0.02,0.08-0.06,0.12-0.12c0.01-0.03,0.04-0.06,0.07-0.09
		c0.02-0.03,0.06-0.05,0.11-0.07c0.03-0.01,0.09-0.03,0.2-0.03c0.2,0,0.26,0.08,0.27,0.11c0.05,0.08,0.05,0.19-0.01,0.34
		c-0.04,0.09-0.09,0.19-0.15,0.31c-0.07,0.12-0.14,0.24-0.23,0.36c-0.08,0.13-0.18,0.25-0.27,0.38c-0.1,0.13-0.2,0.24-0.29,0.34
		c-0.05,0.05-0.07,0.11-0.07,0.15c0,0.03,0,0.13,0.08,0.19c0.03,0.03,0.08,0.04,0.13,0.05h0.04c0.07,0,0.12-0.05,0.15-0.08
		c0.08,0,0.17,0,0.27,0c0.11,0,0.22,0,0.31,0c0.22,0.01,0.4,0.02,0.55,0.05c0.15,0.02,0.28,0.04,0.38,0.04H19
		c0.08,0,0.16-0.05,0.17-0.17c0-0.04,0.01-0.09,0.02-0.16s0.03-0.16,0.06-0.26c0.03-0.1,0.09-0.22,0.17-0.35l0.04-0.06L19.4,34.72z"
		/>
	<polygon class="st0" points="3.9,9.58 24.95,9.58 14.43,4.56 	"/>
	<rect x="3.4" y="10.58" class="st0" width="22.06" height="1"/>
	<rect x="3.4" y="26.12" class="st0" width="6.02" height="3.01"/>
	<rect x="19.44" y="26.12" class="st0" width="6.01" height="3.01"/>
	<rect x="11.42" y="26.12" class="st0" width="2.01" height="3.01"/>
	<rect x="15.43" y="26.12" class="st0" width="2" height="3.01"/>
	<polygon class="st0" points="3.65,12.58 3.4,25.12 5.4,25.12 5.15,12.58 	"/>
	<polygon class="st0" points="9.16,12.58 9.41,25.12 7.41,25.12 7.66,12.58 	"/>
	<polygon class="st0" points="13.17,12.58 13.42,25.12 11.42,25.12 11.67,12.58 	"/>
	<polygon class="st0" points="17.18,12.58 17.43,25.12 15.43,25.12 15.68,12.58 	"/>
	<polygon class="st0" points="21.2,12.58 21.45,25.12 19.44,25.12 19.69,12.58 	"/>
	<polygon class="st0" points="25.2,12.58 25.45,25.12 23.45,25.12 23.7,12.58 	"/>
	<polygon class="st0" points="14.43,2.06 3.4,7.32 3.4,8.57 14.43,3.31 25.45,8.57 25.45,7.32 	"/>
</g>
</svg>
